<?xml version="1.0" encoding="UTF-8" standalone="no"?>
<!-- Created with Inkscape (http://www.inkscape.org/) -->

<svg
   xmlns:dc="http://purl.org/dc/elements/1.1/"
   xmlns:cc="http://creativecommons.org/ns#"
   xmlns:rdf="http://www.w3.org/1999/02/22-rdf-syntax-ns#"
   xmlns:svg="http://www.w3.org/2000/svg"
   xmlns="http://www.w3.org/2000/svg"
   xmlns:xlink="http://www.w3.org/1999/xlink"
   xmlns:sodipodi="http://sodipodi.sourceforge.net/DTD/sodipodi-0.dtd"
   xmlns:inkscape="http://www.inkscape.org/namespaces/inkscape"
   width="1200.0032"
   height="1300.0039"
   id="svg2"
   version="1.1"
   inkscape:version="0.48.0 r9654"
   sodipodi:docname="touchpad-indicator-disabled.svg">
  <defs
     id="defs4">
    <linearGradient
       id="linearGradient3975">
      <stop
         style="stop-color:#ffffff;stop-opacity:1;"
         offset="0"
         id="stop3977" />
      <stop
         style="stop-color:#c8c8c8;stop-opacity:1;"
         offset="1"
         id="stop3979" />
    </linearGradient>
    <linearGradient
       inkscape:collect="always"
       xlink:href="#linearGradient3975"
       id="linearGradient3981"
       x1="7.1419579"
       y1="563.79279"
       x2="757.14568"
       y2="563.79279"
       gradientUnits="userSpaceOnUse"
       gradientTransform="translate(12.121831,10.08122)" />
    <linearGradient
       inkscape:collect="always"
       xlink:href="#linearGradient3975-8"
       id="linearGradient3981-2"
       x1="7.1419578"
       y1="563.79279"
       x2="757.14569"
       y2="563.79279"
       gradientUnits="userSpaceOnUse" />
    <linearGradient
       id="linearGradient3975-8">
      <stop
         style="stop-color:#ffffff;stop-opacity:1;"
         offset="0"
         id="stop3977-9" />
      <stop
         style="stop-color:#c8c8c8;stop-opacity:1;"
         offset="1"
         id="stop3979-7" />
    </linearGradient>
    <linearGradient
       inkscape:collect="always"
       xlink:href="#linearGradient3183"
       id="linearGradient4154"
       gradientUnits="userSpaceOnUse"
       gradientTransform="matrix(0,-3.0000004,2.9652505,0,13.335916,19.000009)"
       x1="11"
       y1="11.015625"
       x2="19"
       y2="11.015625" />
    <linearGradient
       id="linearGradient3183">
      <stop
         id="stop3185"
         style="stop-color:#c80000;stop-opacity:1"
         offset="0" />
      <stop
         id="stop3187"
         style="stop-color:#f3604d;stop-opacity:1"
         offset="1" />
    </linearGradient>
    <linearGradient
       inkscape:collect="always"
       xlink:href="#linearGradient3183-2"
       id="linearGradient4154-4"
       gradientUnits="userSpaceOnUse"
       gradientTransform="matrix(0,-3.0000004,2.9652505,0,6.320291,80.997637)"
       x1="11"
       y1="11.015625"
       x2="19"
       y2="11.015625" />
    <linearGradient
       id="linearGradient3183-2">
      <stop
         id="stop3185-4"
         style="stop-color:#c80000;stop-opacity:1"
         offset="0" />
      <stop
         id="stop3187-9"
         style="stop-color:#f3604d;stop-opacity:1"
         offset="1" />
    </linearGradient>
  </defs>
  <sodipodi:namedview
     id="base"
     pagecolor="#ffffff"
     bordercolor="#666666"
     borderopacity="1.0"
     inkscape:pageopacity="0.0"
     inkscape:pageshadow="2"
     inkscape:zoom="0.35"
     inkscape:cx="578.5285"
     inkscape:cy="901.62608"
     inkscape:document-units="px"
     inkscape:current-layer="layer1"
     showgrid="false"
     inkscape:object-nodes="true"
     inkscape:snap-nodes="true"
     inkscape:snap-smooth-nodes="true"
     inkscape:object-paths="false"
     inkscape:snap-bbox="false"
     inkscape:snap-global="false"
     fit-margin-top="275"
     fit-margin-left="250"
     fit-margin-right="250"
     fit-margin-bottom="275"
     inkscape:window-width="1280"
     inkscape:window-height="995"
     inkscape:window-x="0"
     inkscape:window-y="0"
     inkscape:window-maximized="1" />
  <metadata
     id="metadata7">
    <rdf:RDF>
      <cc:Work
         rdf:about="">
        <dc:format>image/svg+xml</dc:format>
        <dc:type
           rdf:resource="http://purl.org/dc/dcmitype/StillImage" />
        <dc:title></dc:title>
      </cc:Work>
    </rdf:RDF>
  </metadata>
  <g
     inkscape:label="Capa 1"
     inkscape:groupmode="layer"
     id="layer1"
     transform="translate(217.84456,86.21875)">
    <path
       id="path3827-2"
       style="fill:none;stroke:#ffffff;stroke-width:120;stroke-linecap:butt;stroke-linejoin:miter;stroke-miterlimit:4;stroke-opacity:1;stroke-dasharray:none"
       d="m 394.30687,725.36671 0,200.00003 M 69.306911,725.36671 l 649.999959,0 M 69.306911,375.3667 l 0,400.00001 c -0.33768,99.43233 94.516619,150.53013 149.999999,150.00003 l 349.99996,0 c 72.581,0.4646 150.3377,-50.5677 150,-150.00003 l 0,-400.00001 c 0.4033,-73.49738 -42.35,-146.78604 -150,-149.99999 -464.84875,2.47409 -349.99996,0 -349.99996,0 -76.19149,3.30324 -150.209019,66.68784 -149.999999,149.99999 z"
       inkscape:connector-curvature="0" />
    <path
       id="path3827"
       style="fill:none;stroke:url(#linearGradient3981);stroke-width:100;stroke-linecap:butt;stroke-linejoin:miter;stroke-miterlimit:4;stroke-opacity:1;stroke-dasharray:none"
       d="m 394.26469,723.87197 0,200 m -325.000002,-200 650.000002,0 m -650.000002,-350 0,400 c -0.337677,99.4323 94.516622,150.53011 150.000002,150 l 350,0 c 72.58094,0.4646 150.33767,-50.5677 150,-150 l 0,-400 c 0.40321,-73.49739 -42.35009,-146.78605 -150,-150 -464.84879,2.47409 -350,0 -350,0 -76.19149,3.30324 -150.209019,66.68784 -150.000002,150 z"
       inkscape:connector-curvature="0" />
    <path
       id="path3827-2-6"
       style="fill:none;stroke:#fafafa;stroke-width:80;stroke-linecap:butt;stroke-linejoin:miter;stroke-miterlimit:4;stroke-opacity:1;stroke-dasharray:none"
       d="m 396.32721,723.34639 0,200.00003 M 71.327247,723.34639 l 649.999943,0 M 71.327247,373.34638 l 0,400.00001 c -0.33768,99.43233 94.516623,150.53013 150.000003,150.00003 l 349.99994,0 c 72.581,0.4646 150.3377,-50.5677 150,-150.00003 l 0,-400.00001 c 0.4033,-73.49738 -42.35,-146.78604 -150,-149.99999 -464.84873,2.47409 -349.99994,0 -349.99994,0 -76.19149,3.30324 -150.209023,66.68784 -150.000003,149.99999 z"
       inkscape:connector-curvature="0" />
  </g>
</svg>
