<?xml version="1.0" encoding="UTF-8" standalone="no"?>
<!-- Created with Inkscape (http://www.inkscape.org/) -->

<svg
   xmlns:dc="http://purl.org/dc/elements/1.1/"
   xmlns:cc="http://creativecommons.org/ns#"
   xmlns:rdf="http://www.w3.org/1999/02/22-rdf-syntax-ns#"
   xmlns:svg="http://www.w3.org/2000/svg"
   xmlns="http://www.w3.org/2000/svg"
   xmlns:xlink="http://www.w3.org/1999/xlink"
   xmlns:sodipodi="http://sodipodi.sourceforge.net/DTD/sodipodi-0.dtd"
   xmlns:inkscape="http://www.inkscape.org/namespaces/inkscape"
   width="1200.0032"
   height="1300.0039"
   id="svg2"
   version="1.1"
   inkscape:version="0.48.0 r9654"
   sodipodi:docname="touchpad-indicator.svg">
  <defs
     id="defs4">
    <linearGradient
       id="linearGradient3975">
      <stop
         style="stop-color:#ffffff;stop-opacity:1;"
         offset="0"
         id="stop3977" />
      <stop
         style="stop-color:#c8c8c8;stop-opacity:1;"
         offset="1"
         id="stop3979" />
    </linearGradient>
    <linearGradient
       inkscape:collect="always"
       xlink:href="#linearGradient3975"
       id="linearGradient3981"
       x1="7.1419579"
       y1="563.79279"
       x2="757.14568"
       y2="563.79279"
       gradientUnits="userSpaceOnUse"
       gradientTransform="translate(12.121831,10.08122)" />
    <linearGradient
       inkscape:collect="always"
       xlink:href="#linearGradient3975-8"
       id="linearGradient3981-2"
       x1="7.1419578"
       y1="563.79279"
       x2="757.14569"
       y2="563.79279"
       gradientUnits="userSpaceOnUse" />
    <linearGradient
       id="linearGradient3975-8">
      <stop
         style="stop-color:#ffffff;stop-opacity:1;"
         offset="0"
         id="stop3977-9" />
      <stop
         style="stop-color:#c8c8c8;stop-opacity:1;"
         offset="1"
         id="stop3979-7" />
    </linearGradient>
    <linearGradient
       inkscape:collect="always"
       xlink:href="#linearGradient3183"
       id="linearGradient4154"
       gradientUnits="userSpaceOnUse"
       gradientTransform="matrix(0,-3.0000004,2.9652505,0,13.335916,19.000009)"
       x1="11"
       y1="11.015625"
       x2="19"
       y2="11.015625" />
    <linearGradient
       id="linearGradient3183">
      <stop
         id="stop3185"
         style="stop-color:#c80000;stop-opacity:1"
         offset="0" />
      <stop
         id="stop3187"
         style="stop-color:#f3604d;stop-opacity:1"
         offset="1" />
    </linearGradient>
    <linearGradient
       y2="11.015625"
       x2="19"
       y1="11.015625"
       x1="11"
       gradientTransform="matrix(0,-72.000012,71.166012,0,-375.48803,1616.9832)"
       gradientUnits="userSpaceOnUse"
       id="linearGradient4171"
       xlink:href="#linearGradient3183"
       inkscape:collect="always" />
    <linearGradient
       inkscape:collect="always"
       xlink:href="#linearGradient3183-2"
       id="linearGradient4154-4"
       gradientUnits="userSpaceOnUse"
       gradientTransform="matrix(0,-3.0000004,2.9652505,0,6.320291,80.997637)"
       x1="11"
       y1="11.015625"
       x2="19"
       y2="11.015625" />
    <linearGradient
       id="linearGradient3183-2">
      <stop
         id="stop3185-4"
         style="stop-color:#c80000;stop-opacity:1"
         offset="0" />
      <stop
         id="stop3187-9"
         style="stop-color:#f3604d;stop-opacity:1"
         offset="1" />
    </linearGradient>
  </defs>
  <sodipodi:namedview
     id="base"
     pagecolor="#ffffff"
     bordercolor="#666666"
     borderopacity="1.0"
     inkscape:pageopacity="0.0"
     inkscape:pageshadow="2"
     inkscape:zoom="0.35"
     inkscape:cx="578.5285"
     inkscape:cy="901.62608"
     inkscape:document-units="px"
     inkscape:current-layer="layer1"
     showgrid="false"
     inkscape:object-nodes="true"
     inkscape:snap-nodes="true"
     inkscape:snap-smooth-nodes="true"
     inkscape:object-paths="false"
     inkscape:snap-bbox="false"
     inkscape:snap-global="false"
     fit-margin-top="275"
     fit-margin-left="250"
     fit-margin-right="250"
     fit-margin-bottom="275"
     inkscape:window-width="1280"
     inkscape:window-height="995"
     inkscape:window-x="0"
     inkscape:window-y="0"
     inkscape:window-maximized="1" />
  <metadata
     id="metadata7">
    <rdf:RDF>
      <cc:Work
         rdf:about="">
        <dc:format>image/svg+xml</dc:format>
        <dc:type
           rdf:resource="http://purl.org/dc/dcmitype/StillImage" />
        <dc:title></dc:title>
      </cc:Work>
    </rdf:RDF>
  </metadata>
  <g
     inkscape:label="Capa 1"
     inkscape:groupmode="layer"
     id="layer1"
     transform="translate(217.84456,86.21875)">
    <path
       id="path3827-2"
       style="fill:none;stroke:#ffffff;stroke-width:120;stroke-linecap:butt;stroke-linejoin:miter;stroke-miterlimit:4;stroke-opacity:1;stroke-dasharray:none"
       d="m 394.30687,725.36671 0,200.00003 M 69.306911,725.36671 l 649.999959,0 M 69.306911,375.3667 l 0,400.00001 c -0.33768,99.43233 94.516619,150.53013 149.999999,150.00003 l 349.99996,0 c 72.581,0.4646 150.3377,-50.5677 150,-150.00003 l 0,-400.00001 c 0.4033,-73.49738 -42.35,-146.78604 -150,-149.99999 -464.84875,2.47409 -349.99996,0 -349.99996,0 -76.19149,3.30324 -150.209019,66.68784 -149.999999,149.99999 z"
       inkscape:connector-curvature="0" />
    <path
       id="path3827"
       style="fill:none;stroke:url(#linearGradient3981);stroke-width:100;stroke-linecap:butt;stroke-linejoin:miter;stroke-miterlimit:4;stroke-opacity:1;stroke-dasharray:none"
       d="m 394.26469,723.87197 0,200 m -325.000002,-200 650.000002,0 m -650.000002,-350 0,400 c -0.337677,99.4323 94.516622,150.53011 150.000002,150 l 350,0 c 72.58094,0.4646 150.33767,-50.5677 150,-150 l 0,-400 c 0.40321,-73.49739 -42.35009,-146.78605 -150,-150 -464.84879,2.47409 -350,0 -350,0 -76.19149,3.30324 -150.209019,66.68784 -150.000002,150 z"
       inkscape:connector-curvature="0" />
    <path
       id="path3827-2-6"
       style="fill:none;stroke:#fafafa;stroke-width:80;stroke-linecap:butt;stroke-linejoin:miter;stroke-miterlimit:4;stroke-opacity:1;stroke-dasharray:none"
       d="m 396.32721,723.34639 0,200.00003 M 71.327247,723.34639 l 649.999943,0 M 71.327247,373.34638 l 0,400.00001 c -0.33768,99.43233 94.516623,150.53013 150.000003,150.00003 l 349.99994,0 c 72.581,0.4646 150.3377,-50.5677 150,-150.00003 l 0,-400.00001 c 0.4033,-73.49738 -42.35,-146.78604 -150,-149.99999 -464.84873,2.47409 -349.99994,0 -349.99994,0 -76.19149,3.30324 -150.209023,66.68784 -150.000003,149.99999 z"
       inkscape:connector-curvature="0" />
    <g
       transform="matrix(25.628906,0,0,25.628906,-596.97151,-354.01707)"
       style="display:inline"
       id="g4290">
      <g
         id="g4281">
        <path
           inkscape:connector-curvature="0"
           d="m 32.828125,23.028877 c 7e-4,-8.4e-5 -0.09447,0.03137 -0.09375,0.03125 7e-4,-1.2e-4 -0.09446,1.55e-4 -0.09375,0 7e-4,-1.55e-4 -0.09445,0.03144 -0.09375,0.03125 10e-4,-2.62e-4 -0.126005,0.03158 -0.125,0.03125 10e-4,-3.35e-4 -0.125978,0.06291 -0.125,0.0625 10e-4,-4.08e-4 -0.157196,0.06298 -0.15625,0.0625 9.5e-4,-4.78e-4 -0.125908,0.06305 -0.125,0.0625 9e-4,-5.45e-4 -0.09462,0.09436 -0.09375,0.09375 8.5e-4,-6.1e-4 -0.12582,0.06317 -0.125,0.0625 8e-4,-6.71e-4 -0.09452,0.09448 -0.09375,0.09375 6e-4,-5.45e-4 -0.06575,0.06523 -0.09375,0.09375 -0.0093,0.0095 -0.03143,0.03145 -0.03125,0.03125 l -6,6.0625 c 9.55e-4,-0.001 -0.125853,0.157339 -0.125,0.15625 8.55e-4,-0.0011 -0.0945,0.126165 -0.09375,0.125 7.45e-4,-0.0012 -0.09438,0.15748 -0.09375,0.15625 6.3e-4,-0.0012 -0.09426,0.188785 -0.09375,0.1875 5.15e-4,-0.0013 -0.06289,0.157577 -0.0625,0.15625 3.89e-4,-0.0013 -0.03151,0.188858 -0.03125,0.1875 2.61e-4,-0.0014 -0.03138,0.188877 -0.03125,0.1875 1.31e-4,-0.0014 0,0.188883 0,0.1875 0,-0.0014 1.31e-4,0.188877 0,0.1875 -1.31e-4,-0.0014 0.03151,0.188858 0.03125,0.1875 -2.61e-4,-0.0014 0.03164,0.188827 0.03125,0.1875 -3.89e-4,-0.0013 0.06301,0.157535 0.0625,0.15625 -5.15e-4,-0.0013 0.09438,0.18873 0.09375,0.1875 -6.3e-4,-0.0012 0.0945,0.157415 0.09375,0.15625 -7.45e-4,-0.0012 0.0946,0.126089 0.09375,0.125 -8.55e-4,-0.0011 0.125953,0.157253 0.125,0.15625 l 4.5,4.5625 -4.5,4.5625 c 9.55e-4,-0.001 -0.125853,0.157339 -0.125,0.15625 8.55e-4,-0.0011 -0.0945,0.126165 -0.09375,0.125 7.45e-4,-0.0012 -0.09438,0.15748 -0.09375,0.15625 6.3e-4,-0.0012 -0.09426,0.188785 -0.09375,0.1875 5.15e-4,-0.0013 -0.06289,0.157577 -0.0625,0.15625 3.89e-4,-0.0013 -0.03151,0.188858 -0.03125,0.1875 2.61e-4,-0.0014 -0.03138,0.188877 -0.03125,0.1875 1.31e-4,-0.0014 0,0.188883 0,0.1875 0,-0.0014 1.31e-4,0.188877 0,0.1875 -1.31e-4,-0.0014 0.03151,0.188858 0.03125,0.1875 -2.61e-4,-0.0014 0.03164,0.188827 0.03125,0.1875 -3.89e-4,-0.0013 0.06301,0.157535 0.0625,0.15625 -5.15e-4,-0.0013 0.09438,0.18873 0.09375,0.1875 -6.3e-4,-0.0012 0.0945,0.157415 0.09375,0.15625 -7.45e-4,-0.0012 0.0946,0.126089 0.09375,0.125 -8.55e-4,-0.0011 0.125953,0.157253 0.125,0.15625 l 6.03125,6.09375 c -0.001,-0.001 0.126082,0.125927 0.125,0.125 -0.0011,-9.5e-4 0.157418,0.125817 0.15625,0.125 -0.0012,-8e-4 0.157492,0.09445 0.15625,0.09375 -0.0012,-7e-4 0.188805,0.09432 0.1875,0.09375 -0.0013,-5.5e-4 0.188854,0.06294 0.1875,0.0625 -0.0014,-4.44e-4 0.157641,0.06281 0.15625,0.0625 -0.0014,-3.1e-4 0.188915,0.03142 0.1875,0.03125 -0.0014,-1.72e-4 0.220175,3.3e-5 0.21875,0 -0.0014,-3.3e-5 0.188921,-1.06e-4 0.1875,0 -0.0014,1.06e-4 0.188904,-0.03149 0.1875,-0.03125 -0.0014,2.45e-4 0.188874,-0.03163 0.1875,-0.03125 -0.0014,3.81e-4 0.15758,-0.06301 0.15625,-0.0625 -0.0013,5e-4 0.188773,-0.06314 0.1875,-0.0625 -0.0013,6.5e-4 0.157455,-0.09451 0.15625,-0.09375 -0.0012,7.5e-4 0.157374,-0.125876 0.15625,-0.125 -0.0011,9e-4 0.157283,-0.125982 0.15625,-0.125 l 4.59375,-4.5625 4.40625,4.5 c -5e-4,-5.5e-4 0.06303,0.063 0.0625,0.0625 -5.5e-4,-5e-4 0.09431,0.06298 0.09375,0.0625 -5.5e-4,-4.76e-4 0.06308,0.06295 0.0625,0.0625 -6e-4,-4.47e-4 0.09435,0.06292 0.09375,0.0625 -6e-4,-4.17e-4 0.06312,0.06289 0.0625,0.0625 -6e-4,-3.86e-4 0.09439,0.06285 0.09375,0.0625 -6.5e-4,-3.54e-4 0.09441,0.03157 0.09375,0.03125 -6.5e-4,-3.21e-4 0.09443,0.03154 0.09375,0.03125 -7e-4,-2.88e-4 0.06319,0.0315 0.0625,0.03125 -7e-4,-2.53e-4 0.09445,0.03147 0.09375,0.03125 -7e-4,-2.18e-4 0.09446,0.03143 0.09375,0.03125 -7e-4,-1.83e-4 0.125719,0.0314 0.125,0.03125 -7e-4,-1.47e-4 0.09448,0.03136 0.09375,0.03125 -7.5e-4,-1.1e-4 0.09448,7.4e-5 0.09375,0 -7.5e-4,-7.4e-5 0.09448,3.7e-5 0.09375,0 -7.5e-4,-3.7e-5 0.09448,0 0.09375,0 -7.5e-4,0 0.09448,-3.7e-5 0.09375,0 -7.5e-4,3.7e-5 0.09448,-7.4e-5 0.09375,0 -7.5e-4,7.4e-5 0.09448,-1.1e-4 0.09375,0 -7.5e-4,1.1e-4 0.09447,-0.0314 0.09375,-0.03125 -7e-4,1.47e-4 0.125711,-0.03143 0.125,-0.03125 -7e-4,1.83e-4 0.09445,-0.03147 0.09375,-0.03125 -7e-4,2.18e-4 0.09444,-0.0315 0.09375,-0.03125 -7e-4,2.53e-4 0.06318,-0.03154 0.0625,-0.03125 -7e-4,2.88e-4 0.09441,-0.03157 0.09375,-0.03125 -6.5e-4,3.21e-4 0.09439,-0.0316 0.09375,-0.03125 -6.5e-4,3.54e-4 0.09437,-0.06289 0.09375,-0.0625 -6e-4,3.86e-4 0.0631,-0.06292 0.0625,-0.0625 -6e-4,4.17e-4 0.09433,-0.06295 0.09375,-0.0625 -6e-4,4.47e-4 0.06306,-0.06298 0.0625,-0.0625 -5.5e-4,4.76e-4 0.09428,-0.063 0.09375,-0.0625 -5.5e-4,5e-4 0.06301,-0.06303 0.0625,-0.0625 l 6.21875,-6.28125 c -10e-4,10e-4 0.125876,-0.157374 0.125,-0.15625 -9e-4,0.0011 0.125762,-0.157455 0.125,-0.15625 -7.5e-4,0.0012 0.09439,-0.157523 0.09375,-0.15625 -6.5e-4,0.0013 0.06301,-0.18883 0.0625,-0.1875 -5e-4,0.0013 0.06288,-0.157624 0.0625,-0.15625 -3.81e-4,0.0014 0.0315,-0.188904 0.03125,-0.1875 -2.45e-4,0.0014 0.03136,-0.188921 0.03125,-0.1875 -1.06e-4,0.0014 -3.3e-5,-0.188925 0,-0.1875 3.3e-5,0.0014 -1.72e-4,-0.220165 0,-0.21875 1.72e-4,0.0014 -0.03156,-0.188891 -0.03125,-0.1875 3.1e-4,0.0014 -0.06294,-0.157604 -0.0625,-0.15625 4.44e-4,0.0014 -0.06307,-0.188805 -0.0625,-0.1875 5.5e-4,0.0013 -0.09445,-0.188742 -0.09375,-0.1875 7e-4,0.0012 -0.09457,-0.157418 -0.09375,-0.15625 8e-4,0.0012 -0.125927,-0.157332 -0.125,-0.15625 9.5e-4,0.0011 -0.126029,-0.125987 -0.125,-0.125 l -4.40625,-4.3125 4.40625,-4.3125 c -10e-4,10e-4 0.125927,-0.126082 0.125,-0.125 -9.5e-4,0.0011 0.125817,-0.157418 0.125,-0.15625 -8e-4,0.0012 0.09445,-0.157492 0.09375,-0.15625 -7e-4,0.0012 0.09432,-0.188805 0.09375,-0.1875 -5.5e-4,0.0013 0.06294,-0.188854 0.0625,-0.1875 -4.44e-4,0.0014 0.06281,-0.157641 0.0625,-0.15625 -3.1e-4,0.0014 0.03142,-0.188915 0.03125,-0.1875 -1.72e-4,0.0014 3.3e-5,-0.220175 0,-0.21875 -3.3e-5,0.0014 -1.06e-4,-0.188921 0,-0.1875 1.06e-4,0.0014 -0.0315,-0.188904 -0.03125,-0.1875 2.45e-4,0.0014 -0.03163,-0.188874 -0.03125,-0.1875 3.81e-4,0.0014 -0.06301,-0.15758 -0.0625,-0.15625 5e-4,0.0013 -0.06314,-0.188773 -0.0625,-0.1875 6.5e-4,0.0013 -0.09451,-0.157455 -0.09375,-0.15625 7.5e-4,0.0012 -0.125876,-0.157374 -0.125,-0.15625 9e-4,0.0011 -0.125982,-0.157283 -0.125,-0.15625 l -6.21875,-6.28125 c 5e-4,5.3e-4 -0.06303,-0.063 -0.0625,-0.0625 5.5e-4,5.05e-4 -0.09431,-0.06298 -0.09375,-0.0625 5.5e-4,4.76e-4 -0.06308,-0.06295 -0.0625,-0.0625 6e-4,4.47e-4 -0.09435,-0.06292 -0.09375,-0.0625 6e-4,4.17e-4 -0.06312,-0.06289 -0.0625,-0.0625 6e-4,3.86e-4 -0.09439,-0.06285 -0.09375,-0.0625 6.5e-4,3.54e-4 -0.09441,-0.03157 -0.09375,-0.03125 6.5e-4,3.21e-4 -0.09443,-0.03154 -0.09375,-0.03125 6.5e-4,2.88e-4 -0.06319,-0.0315 -0.0625,-0.03125 7e-4,2.53e-4 -0.09445,-0.03147 -0.09375,-0.03125 7e-4,2.18e-4 -0.09446,-0.03143 -0.09375,-0.03125 7e-4,1.83e-4 -0.125719,-0.0314 -0.125,-0.03125 7e-4,1.47e-4 -0.09448,-0.03136 -0.09375,-0.03125 7e-4,1.1e-4 -0.09448,-7.4e-5 -0.09375,0 7.5e-4,7.4e-5 -0.09448,-3.7e-5 -0.09375,0 7.5e-4,3.7e-5 -0.09448,0 -0.09375,0 7.5e-4,0 -0.09448,3.7e-5 -0.09375,0 7.5e-4,-3.7e-5 -0.09448,7.4e-5 -0.09375,0 7.5e-4,-7.4e-5 -0.09448,1.1e-4 -0.09375,0 7e-4,-1.1e-4 -0.09447,0.0314 -0.09375,0.03125 7e-4,-1.47e-4 -0.125711,0.03143 -0.125,0.03125 7e-4,-1.83e-4 -0.09445,0.03147 -0.09375,0.03125 7e-4,-2.18e-4 -0.09444,0.0315 -0.09375,0.03125 7e-4,-2.53e-4 -0.06318,0.03154 -0.0625,0.03125 6.5e-4,-2.88e-4 -0.09441,0.03157 -0.09375,0.03125 6.5e-4,-3.21e-4 -0.09439,0.0316 -0.09375,0.03125 6.5e-4,-3.54e-4 -0.09437,0.06289 -0.09375,0.0625 6e-4,-3.86e-4 -0.0631,0.06292 -0.0625,0.0625 6e-4,-4.17e-4 -0.09433,0.06295 -0.09375,0.0625 6e-4,-4.47e-4 -0.06306,0.06298 -0.0625,0.0625 5.5e-4,-4.76e-4 -0.09428,0.063 -0.09375,0.0625 5.5e-4,-5.05e-4 -0.06301,0.06303 -0.0625,0.0625 l -4.40625,4.5 -4.5625,-4.53125 c 1.71e-4,1.72e-4 -0.02075,-0.0212 -0.03125,-0.03125 -0.021,-0.0201 -0.06286,-0.06283 -0.0625,-0.0625 5.5e-4,4.91e-4 -0.06306,-0.06296 -0.0625,-0.0625 5.5e-4,4.63e-4 -0.06309,-0.06294 -0.0625,-0.0625 6e-4,4.35e-4 -0.09436,-0.03166 -0.09375,-0.03125 6e-4,4.05e-4 -0.09438,-0.06287 -0.09375,-0.0625 6.5e-4,3.74e-4 -0.06314,-0.06284 -0.0625,-0.0625 6.5e-4,3.42e-4 -0.09441,-0.03156 -0.09375,-0.03125 6.5e-4,3.09e-4 -0.09443,-0.03153 -0.09375,-0.03125 7e-4,2.76e-4 -0.09444,-0.03149 -0.09375,-0.03125 7e-4,2.42e-4 -0.09445,-0.03146 -0.09375,-0.03125 7e-4,2.07e-4 -0.09446,-0.03142 -0.09375,-0.03125 7e-4,1.72e-4 -0.09447,-0.03139 -0.09375,-0.03125 7e-4,1.36e-4 -0.09447,-10e-5 -0.09375,0 7e-4,10e-5 -0.09448,-0.03131 -0.09375,-0.03125 7.5e-4,6.4e-5 -0.09448,-2.8e-5 -0.09375,0 7.5e-4,2.8e-5 -0.09448,9e-6 -0.09375,0 a 0.9965754,0.9965754 0 0 0 -0.0625,0 c 7.5e-4,-4.7e-5 -0.09447,8.4e-5 -0.09375,0 z"
           id="path3761-2"
           style="opacity:0.1;fill:#000000;fill-opacity:1;fill-rule:evenodd;stroke:none;display:inline" />
        <path
           inkscape:connector-curvature="0"
           d="m 32.796875,24.060127 a 0.952783,0.952783 0 0 0 -0.46875,0.28125 l -6.03125,6.09375 a 0.952783,0.952783 0 0 0 0,1.3125 l 5.1875,5.25 -5.1875,5.25 a 0.952783,0.952783 0 0 0 0,1.3125 l 6.03125,6.09375 a 0.952783,0.952783 0 0 0 1.34375,0.03125 l 5.28125,-5.25 5.125,5.21875 a 0.952783,0.952783 0 0 0 1.375,0 l 6.21875,-6.28125 a 0.952783,0.952783 0 0 0 -0.03125,-1.34375 l -5.15625,-5.03125 5.15625,-5.03125 a 0.952783,0.952783 0 0 0 0.03125,-1.34375 l -6.21875,-6.28125 a 0.952783,0.952783 0 0 0 -1.375,0 l -5.125,5.21875 -5.28125,-5.25 a 0.952783,0.952783 0 0 0 -0.875,-0.25 z"
           id="path3757-3"
           style="opacity:0.15;fill:#000000;fill-opacity:1;fill-rule:evenodd;stroke:none;display:inline" />
        <path
           inkscape:connector-curvature="0"
           d="m 26.984376,42.903879 6.023165,6.093748 5.930503,-5.906248 5.837833,5.906248 6.208498,-6.281248 -5.83784,-5.71875 5.83784,-5.71875 -6.208498,-6.281252 -5.837833,5.90625 -5.930503,-5.90625 -6.023165,6.093751 5.837841,5.906251 -5.837841,5.90625 z"
           id="path3751-1"
           style="opacity:0.3;fill:#000000;fill-opacity:1;fill-rule:evenodd;stroke:none;display:inline" />
        <path
           inkscape:connector-curvature="0"
           d="m 26.984376,41.903879 6.023165,6.093748 5.930503,-5.906248 5.837833,5.906248 6.208498,-6.281248 -5.83784,-5.71875 5.83784,-5.71875 -6.208498,-6.281252 -5.837833,5.90625 -5.930503,-5.90625 -6.023165,6.093751 5.837841,5.906251 -5.837841,5.90625 z"
           id="path7165-5"
           style="fill:url(#linearGradient4154-4);fill-opacity:1;fill-rule:evenodd;stroke:none;display:inline" />
        <path
           inkscape:connector-curvature="0"
           d="m 33.015626,23.997627 -6.03125,6.09375 1,1 5.03125,-5.09375 5.937499,5.90625 5.8125,-5.90625 5.21875,5.25 1,-0.96875 -6.21875,-6.28125 -5.8125,5.90625 -5.937499,-5.90625 z m -0.194826,11.975812 -5.836424,5.930438 1,1 4.84375,-4.90625 -0.0073,-2.024188 z m 12.342644,0.04727 -0.02282,1.976918 4.84375,4.75 1,-1.03125 -5.820931,-5.695668 z"
           id="path2970-7"
           style="opacity:0.2;fill:#ffffff;fill-opacity:1;fill-rule:evenodd;stroke:none;display:inline" />
      </g>
    </g>
  </g>
</svg>
